Coordinates
version=1
nRows=8
nColumns=36
inDegrees=yes

Units are S.I. units (second, meters, Newtons, ...)
If the header above contains a line with 'inDegrees', this indicates whether rotational values are in degrees (yes) or radians (no).

endheader
time	pelvis_tilt	pelvis_list	pelvis_rotation	pelvis_tx	pelvis_ty	pelvis_tz	hip_flexion_r	hip_adduction_r	hip_rotation_r	knee_angle_r	knee_angle_r_beta	ankle_angle_r	subtalar_angle_r	mtp_angle_r	hip_flexion_l	hip_adduction_l	hip_rotation_l	knee_angle_l	knee_angle_l_beta	ankle_angle_l	subtalar_angle_l	mtp_angle_l	lumbar_extension	lumbar_bending	lumbar_rotation	arm_flex_r	arm_add_r	arm_rot_r	elbow_flex_r	pro_sup_r	arm_flex_l	arm_add_l	arm_rot_l	elbow_flex_l	pro_sup_l
      1.81000000	     -7.23322684	      0.01957982	      4.14970866	     -0.28561708	      0.81073070	     -0.54571073	     56.61454857	     -3.24491537	     -8.13645404	     84.96606434	      1.48293758	     33.31452181	     -7.88203841	     -7.49100786	     57.52310662	     -2.00311672	      1.99516020	     86.36674520	      1.50738407	     31.18006405	     -7.46401256	     -7.49100786	    -29.70569846	      5.42194979	      2.34386037	     90.19915552	     -4.30940192	     23.40250076	     58.39271701	    105.36888155	     74.51432423	    -39.40693199	     15.14870744	     92.86976531	     89.52239553
      1.82000000	     -8.16913291	      0.10682682	      3.86720214	     -0.28198263	      0.82456471	     -0.54576198	     55.76576648	     -3.38332122	     -8.26646309	     82.06198004	      1.43225174	     32.24035883	     -7.48968566	     -7.49126197	     57.21847229	     -2.16493816	      1.74642030	     84.20630328	      1.46967724	     28.48023537	     -8.11276730	     -7.49126197	    -28.42654403	      5.71083626	      2.74023504	     92.90379618	     -4.80435000	     25.39949723	     61.18828819	    105.37013123	     72.80413151	    -42.09852677	     12.62259059	     96.51094014	     89.47255790
      1.83000000	     -8.90503478	      0.26550721	      3.41184693	     -0.27849784	      0.83913990	     -0.54507911	     54.67408554	     -3.33373479	     -8.24879680	     78.98731164	      1.37858866	     30.93816031	     -6.64435082	     -7.49137616	     56.94370915	     -2.63187629	      1.34611416	     82.32278452	      1.43680364	     25.20920316	     -7.27080373	     -7.49137616	    -27.38534547	      5.64526772	      3.61894707	     95.56111770	     -5.74899531	     26.46473479	     64.49818653	    105.47513937	     71.90925529	    -44.67072216	     11.27248768	     99.40272907	     89.57037425
      1.84000000	     -9.91101237	      0.45373037	      3.11485665	     -0.27507744	      0.85387126	     -0.54476969	     53.76692784	     -3.38428152	     -8.31995866	     75.64851882	      1.32031573	     29.27992067	     -6.69826801	     -7.49168398	     57.21456679	     -2.88180798	      0.99975751	     80.54577326	      1.40578894	     20.67769263	     -8.05170618	     -7.49168398	    -26.07179335	      5.72620207	      3.89740126	     98.66224945	     -6.34307679	     28.30481705	     67.24574003	    105.21192442	     69.80357576	    -47.83919766	      8.22202959	    102.88520255	     89.20813301
      1.85000000	    -10.81873074	      0.80237889	      2.80341350	     -0.27156350	      0.86897488	     -0.54407620	     52.72305940	     -3.52954277	     -8.37625957	     72.22904416	      1.26063464	     27.61614295	     -6.41451978	     -7.49208432	     57.54572327	     -3.26854622	      0.35521942	     78.88590310	      1.37681874	     15.83142311	     -7.84549617	     -7.49208432	    -24.84740657	      5.44661073	      4.22278111	    101.73900066	     -7.13297815	     29.44233031	     70.15647612	    104.77911911	     68.18363059	    -51.17581219	      5.82522654	    105.93573123	     88.51924323
      1.86000000	    -11.54624659	      1.36845807	      2.47886723	     -0.26800216	      0.88446252	     -0.54292945	     51.47732146	     -3.80134650	     -8.30991034	     68.75794554	      1.20005254	     26.18392442	     -5.42813073	     -7.49215678	     57.76175566	     -3.71452821	     -0.58734732	     77.30643701	      1.34925186	     11.70375155	     -6.08928324	     -7.49215678	    -23.66666127	      4.68117769	      4.87307282	    104.66931733	     -8.58717634	     30.09696175	     73.08161638	    104.89093308	     67.92369788	    -53.95688860	      4.95092146	    107.80895714	     88.55874188
      1.87000000	    -12.36362314	      2.13037577	      2.40990806	     -0.26436008	      0.90001279	     -0.54240271	     50.36828087	     -4.47708896	     -8.45150148	     65.32862956	      1.14019968	     24.01852763	     -5.55538121	     -7.49284246	     58.06820549	     -3.62187641	     -1.48422964	     75.60592174	      1.31957227	      6.64195429	     -6.73341291	     -7.49284246	    -22.57636391	      3.97898286	      4.28522660	    108.22351643	     -9.00050800	     31.35596659	     75.21382613	    103.94767705	     65.66221847	    -58.38445827	      1.49234333	    110.82423266	     87.08158675
      1.88000000	    -12.87919453	      3.10225813	      2.37785867	     -0.26037724	      0.91589915	     -0.54143724	     48.94180009	     -5.19400411	     -8.36800737	     61.87903310	      1.07999287	     21.85765522	     -5.51062271	     -7.49312870	     57.89531658	     -3.42401644	     -2.42299650	     73.98553112	      1.29129112	      3.69802220	     -5.95365252	     -7.49312870	    -21.54782530	      2.75772771	      4.13815586	    111.40140578	    -10.39004659	     32.20680302	     77.12139830	    103.61098788	     65.55980843	    -61.94882336	      0.56822914	    112.29890932	     86.66018964
